<?xml version="1.0" encoding="UTF-8"?>
<svg width="35px" height="24px" viewBox="0 0 35 24" version="1.1" xmlns="http://www.w3.org/2000/svg" xmlns:xlink="http://www.w3.org/1999/xlink">
    <!-- Generator: Sketch 51 (57462) - http://www.bohemiancoding.com/sketch -->
    <title>menu_icon</title>
    <desc>Created with Sketch.</desc>
    <defs></defs>
    <g id="Page-1" stroke="none" stroke-width="1" fill="none" fill-rule="evenodd">
        <g id="burger" fill="#546076">
            <path d="M1.029,1.11022408e-16 L33.971,1.11022408e-16 C34.539301,1.11022408e-16 35,0.460698992 35,1.029 L35,1.034 C35,1.60230101 34.539301,2.063 33.971,2.063 L1.029,2.063 C0.460698992,2.063 1.25554843e-14,1.60230101 -1.65537046e-15,1.034 L-1.65537046e-15,1.029 C-0.00026568304,0.75601087 0.108061186,0.494126298 0.301093742,0.301093742 C0.494126298,0.108061186 0.75601087,-0.00026568304 1.029,1.11022408e-16 Z M1.029,10.969 L33.971,10.969 C34.2442546,10.9689995 34.5062884,11.0776862 34.6993209,11.2710939 C34.8923534,11.4645016 35.0005311,11.7267459 35,12 C34.9994481,12.5679104 34.5389107,13.0280003 33.971,13.028 L1.029,13.028 C0.461089288,13.0280003 0.000551905454,12.5679104 -1.11301569e-15,12 C-0.00053110718,11.7267459 0.107646573,11.4645016 0.300679102,11.2710939 C0.49371163,11.0776862 0.755745356,10.9689995 1.029,10.969 Z M1.029,21.938 L33.971,21.938 C34.5389107,21.9379997 34.9994481,22.3980896 35,22.966 L35,22.971 C35,23.539301 34.539301,24 33.971,24 L1.029,24 C0.460698992,24 7.10542736e-15,23.539301 0,22.971 L0,22.966 C0,22.397699 0.460698992,21.937 1.029,21.937 L1.029,21.938 Z" id="menu_icon"></path>
        </g>
    </g>
</svg>